HIERARCHY
ROOT simHips
{
  OFFSET -203.826 99.9844 1.11546
  CHANNELS 6 Xposition Yposition Zposition Zrotation Xrotation Yrotation
  JOINT simSpine
  {
    OFFSET -0.000355721 21.3001 -0.016921
    CHANNELS 3 Zrotation Xrotation Yrotation
    JOINT simLeftArm
    {
      OFFSET 13.5181 21.3012 0
      CHANNELS 3 Zrotation Xrotation Yrotation
      JOINT simLeftForeArm
      {
        OFFSET 24.5783 0 0
        CHANNELS 3 Zrotation Xrotation Yrotation
        JOINT simLeftHand
        {
          OFFSET 24.5783 0 0
          CHANNELS 3 Zrotation Xrotation Yrotation
          End Site
          {
            OFFSET 7.32568 1.52588e-05 0.0169305
          }
        }
      }
    }
    JOINT simHead
    {
      OFFSET 0 27.4458 -0.00489235
      CHANNELS 3 Zrotation Xrotation Yrotation
      End Site
      {
        OFFSET 0 0 0
      }
    }
    JOINT simRightArm
    {
      OFFSET -13.5174 21.3012 0
      CHANNELS 3 Zrotation Xrotation Yrotation
      JOINT simRightForeArm
      {
        OFFSET -24.5783 0 0
        CHANNELS 3 Zrotation Xrotation Yrotation
        JOINT simRightHand
        {
          OFFSET -24.5783 0 0
          CHANNELS 3 Zrotation Xrotation Yrotation
          End Site
          {
            OFFSET -7.32568 1.52588e-05 0.0169305
          }
        }
      }
    }
  }
  JOINT simRightUpLeg
  {
    OFFSET -8.44614 -9.41038 0.835684
    CHANNELS 3 Zrotation Xrotation Yrotation
    JOINT simRightLeg
    {
      OFFSET 0 -40.9639 0
      CHANNELS 3 Zrotation Xrotation Yrotation
      JOINT simRightFoot
      {
        OFFSET 0 -40.9639 0
        CHANNELS 3 Zrotation Xrotation Yrotation
        End Site
        {
          OFFSET 0.50614 -9.67405 14.6709
        }
      }
    }
  }
  JOINT simLeftUpLeg
  {
    OFFSET 8.44614 -9.41038 0.835684
    CHANNELS 3 Zrotation Xrotation Yrotation
    JOINT simLeftLeg
    {
      OFFSET 0 -40.9639 0
      CHANNELS 3 Zrotation Xrotation Yrotation
      JOINT simLeftFoot
      {
        OFFSET 0 -40.9639 0
        CHANNELS 3 Zrotation Xrotation Yrotation
        End Site
        {
          OFFSET -0.50614 -9.67405 14.6709
        }
      }
    }
  }
}
MOTION
Frames:	10
Frame Time:	0.0333333
-203.826 99.9844 1.11546 0 0 -0 1.70755e-06 0 -0 -6.83019e-06 -1.70755e-06 -1.53679e-05 5.12264e-06 1.70755e-06 4.36952e-05 -2.66804e-08 4.49798e-15 -9.65935e-06 -3.41509e-06 0 -0 6.83019e-06 -8.53773e-07 5.12264e-06 6.22621e-05 -5.97642e-06 -1.4782e-05 -5.75742e-13 6.83019e-06 9.65935e-06 -0.771195 1.36786 0.013667 -0.00749349 1.3713 -0.00525216 0.771298 -2.73914 0.0208635 -1.32562 2.74794 0.0317821 0.00644909 -0.00153531 -0.00420106 1.32561 -2.74641 0.031778 
-203.851 99.9851 1.02838 -0.029179 -0.0774866 -0.0612439 0.00383071 0.0796417 -0.121615 -0.127676 -0.0665549 -0.00475967 0.185267 -0.676383 4.36983e-05 -0.150525 0.639723 0.0496155 0.00825422 -0.0701817 -0.0851403 -0.036964 0.058378 0.0450622 6.22622e-05 -3.58953e-05 9.56019e-05 0.0217175 0.211943 -0.0422488 -0.723869 1.3334 0.0897308 -0.00748404 1.47439 -0.00525239 0.770738 -2.71491 0.0208631 -1.27348 2.7884 -0.0275465 0.00644916 -0.000543325 -0.00420106 1.29245 -2.71074 0.108681 
-203.892 99.9848 0.908381 -0.0320962 -0.13188 -0.0751264 -0.0553374 0.184386 -0.167873 -0.0860591 0.00671097 -0.0799799 0.157604 -0.575074 4.36974e-05 -0.196428 0.614322 -0.248731 0.0839905 -0.26249 -0.130835 -0.0467062 0.045146 -0.0139305 7.2903e-05 -0.0473735 0.0128696 -0.0423929 0.22607 -0.0780862 -0.691274 1.16423 0.117492 -0.0074608 1.7278 -0.00525304 0.691469 -2.74372 0.0273836 -1.23488 2.71246 -0.121717 0.00645613 0.0944795 -0.00420107 1.2095 -2.67957 0.196357 
-203.933 99.9803 0.810908 -0.0308291 -0.184987 -0.120164 -0.10445 0.20325 -0.175415 -0.031353 0.108032 -0.182298 0.187162 -0.682767 4.36983e-05 -0.234833 0.734008 -0.209395 0.121777 -0.353801 -0.202764 -0.0440651 -0.0272144 -0.0291293 6.22621e-05 1.6514e-05 7.72585e-05 0.0447174 0.38144 -0.152374 -0.670749 0.996558 0.209406 -0.00742377 2.13142 -0.00525429 0.520648 -2.92114 0.0697608 -1.18966 2.71972 0.121955 0.00645553 0.0862899 -0.00420107 1.00317 -2.64841 -0.000956122 
-203.97 99.978 0.699612 -0.0444616 -0.205359 -0.143143 -0.115119 0.241426 -0.231582 0.0169585 0.0635787 -0.232285 0.266681 -0.971473 4.37015e-05 -0.220541 1.00086 -0.0672909 0.0739678 -0.508948 -0.212247 -0.041315 -0.069795 -0.0715321 0.000328184 -0.236601 0.0643963 0.112988 0.651021 -0.217966 -0.634999 0.884691 0.337819 -0.00742325 2.13714 -0.00525431 0.517486 -2.80878 -0.00622603 -1.13266 2.72364 0.358102 0.00644785 -0.0184433 -0.00420106 0.797569 -2.54855 -0.255835 
-204.006 99.9781 0.572191 -0.035403 -0.205399 -0.172627 -0.119187 0.276133 -0.274327 0.0987608 -0.0125905 -0.286104 0.281701 -1.02524 4.37022e-05 -0.0686792 1.09645 -0.182168 -0.0766204 -0.661359 -0.222324 -0.0759524 -0.21154 -0.0335826 6.22621e-05 1.69776e-05 -6.79687e-05 -0.0320468 0.484271 -0.171028 -0.616649 0.873104 0.355275 -0.00743194 2.04244 -0.00525399 0.51463 -2.71361 -0.0176446 -1.11448 2.59161 0.100523 0.00645272 0.0480144 -0.00420106 0.74996 -2.48359 0.0898411 
-204.045 99.9728 0.453042 -0.0139781 -0.262554 -0.214651 -0.123915 0.294368 -0.188711 0.114382 -0.10751 -0.474036 0.359194 -1.3065 4.37066e-05 -0.0229759 1.39375 -0.267573 -0.238696 -0.702647 -0.322474 -0.00586607 -0.208724 -0.143778 0.000403366 -0.26774 0.0729957 -0.0831843 0.781523 -0.308604 -0.608984 0.730787 0.463995 -0.00729355 2.28885 -0.00815371 0.432927 -2.77126 -0.0571754 -1.09244 2.61405 0.384982 0.00644859 -0.00835437 -0.00420106 0.533834 -2.41464 -0.203724 
-204.07 99.9742 0.346173 -0.0145593 -0.28216 -0.206226 -0.0539318 0.315532 -0.355684 0.0223877 -0.0997107 -0.622407 0.369251 -1.34142 4.37072e-05 0.0100068 1.30087 -0.123371 -0.41327 -0.806203 -0.186134 0.0207217 -0.0994793 0.112766 6.22624e-05 -8.81351e-05 0.000179503 -0.147452 0.475411 -0.152163 -0.598751 1.01927 0.416198 -0.00776843 1.5173 0.00563632 0.727517 -2.30633 -0.174301 -1.07359 2.51405 0.363114 0.00645728 0.0846544 -0.00546609 0.490157 -2.39082 -0.167339 
-204.118 99.9717 0.23065 0.0338243 -0.309142 -0.161655 -0.0615737 0.288014 -0.346581 -0.0415756 -0.129717 -0.925153 0.461833 -1.67632 4.37139e-05 -0.0275988 1.68694 -0.0996896 -0.533925 -0.7665 -0.227407 0.137298 -0.100125 0.157389 0.000219464 -0.18198 0.0494945 0.0313044 0.837125 -0.239999 -0.624545 0.718917 0.355655 -0.0074286 2.07822 -0.00525554 0.437838 -2.56021 0.010195 -1.09125 2.47344 0.316614 0.00727125 0.0563656 -0.00721819 0.445224 -2.29587 -0.180563 
-204.167 99.9697 0.127195 0.088252 -0.386744 -0.16942 -0.0716049 0.319203 -0.306773 -0.140344 -0.119174 -1.18551 0.586603 -2.1249 4.37253e-05 -0.0942605 2.15753 -0.210596 -0.595458 -0.712486 -0.239107 0.255567 -0.115079 0.255847 0.000346447 -0.244404 0.0666217 0.0809491 0.936278 -0.315539 -0.653684 0.860109 0.379821 -0.00750197 1.90228 -0.00353113 0.457697 -2.48141 -0.00687774 -1.11394 2.52488 0.302412 0.00822004 -0.00192166 -0.00918566 0.409818 -2.21209 -0.153655 
